<svg xmlns="http://www.w3.org/2000/svg" width="16" height="16" viewBox="0 0 1024 1024">
    <path d="M437.376 802.656c-203.968 0-369.92-165.952-369.92-369.952 0-203.968 165.952-369.856 369.92-369.856 204 0 369.952 165.888 369.952 369.856C807.328 636.704 641.376 802.656 437.376 802.656zM437.952 124.8c-169.824 0-307.968 138.112-307.968 307.904 0 169.856 138.144 308.032 307.968 308.032 169.856 0 308.032-138.176 308.032-308.032C745.984 262.944 607.808 124.8 437.952 124.8z" fill="#bfbfbf" p-id="10623"></path><path d="M923.2 977.44c-8.032 0-16.064-2.976-22.368-8.96l-259.264-241.984c-13.056-12.416-13.6-32.992-1.28-46.016 12.448-12.992 32.992-13.632 46.016-1.344l259.264 242.112c13.024 12.352 13.568 32.96 1.248 46.016C940.416 973.984 931.808 977.44 923.2 977.44z" fill="#bfbfbf" p-id="10624"></path>
</svg>
